Coordinates
version=1
nRows=32
nColumns=22
inDegrees=yes

Units are S.I. units (second, meters, Newtons, ...)
If the header above contains a line with 'inDegrees', this indicates whether rotational values are in degrees (yes) or radians (no).

endheader
time	pelvis_tilt	pelvis_list	pelvis_rotation	pelvis_tx	pelvis_ty	pelvis_tz	hip_flexion_r	hip_adduction_r	hip_rotation_r	knee_angle_r	ankle_angle_r	subtalar_angle_r	hip_flexion_l	hip_adduction_l	hip_rotation_l	knee_angle_l	ankle_angle_l	subtalar_angle_l	lumbar_extension	lumbar_bending	lumbar_rotation
      5.56000000	     -3.03669604	     -2.67273035	    -96.75406424	      0.93387426	      1.06612511	      0.45838035	     -1.87570834	     13.95239195	     -2.57550113	    -10.28448126	     10.19880358	    -14.51267651	     18.59898375	     -8.95151048	      5.81627195	    -52.04597710	      8.08773530	      1.37336045	     -4.74564695	      0.94037616	     -2.47830176
      5.57000000	     -2.87213519	     -2.53365028	    -97.85123327	      0.93128841	      1.06604925	      0.46569695	     -2.37082958	     13.77761856	     -1.44007158	    -10.20521471	     10.37928222	    -14.49980442	     19.23678913	     -8.78488150	      5.68245264	    -50.37139220	      8.61094682	      1.11671030	     -4.63685995	      0.72929903	     -2.04892022
      5.58000000	     -2.70666128	     -2.49175062	    -98.92891171	      0.92876622	      1.06607287	      0.47303502	     -2.99601621	     13.56892572	     -0.28535992	    -10.06448396	     10.53663622	    -14.56114024	     19.71185413	     -8.58227758	      5.53893728	    -48.59716543	      8.98197297	      0.79367022	     -4.63429455	      0.52122714	     -1.66316874
      5.59000000	     -2.51390612	     -2.34356803	    -99.97829491	      0.92632639	      1.06584849	      0.48029171	     -3.44643275	     13.32750168	      0.77712537	    -10.00220580	     10.74271945	    -14.56506281	     20.28098070	     -8.34107563	      5.41572125	    -46.78010768	      9.27789751	      0.72900122	     -4.50583392	      0.31579426	     -1.27633195
      5.60000000	     -2.34233794	     -2.28370857	   -101.00896716	      0.92394255	      1.06569998	      0.48759389	     -4.01643244	     13.07419713	      1.83874885	     -9.88348815	     10.95053617	    -14.60219005	     20.69882802	     -8.09077612	      5.28547333	    -44.88951269	      9.49151738	      0.71610847	     -4.47513990	      0.13672066	     -0.91443240
      5.61000000	     -2.13712440	     -2.15996039	   -101.99931270	      0.92164341	      1.06538070	      0.49482054	     -4.44456843	     12.78486462	      2.81383301	     -9.85634783	     11.17155298	    -14.57252836	     21.15902681	     -7.79341928	      5.17428025	    -42.94704082	      9.61364928	      0.82646516	     -4.37032479	     -0.05535559	     -0.60001035
      5.62000000	     -1.96717515	     -2.12594525	   -102.95952680	      0.91938373	      1.06513753	      0.50210245	     -4.99386712	     12.49913841	      3.78420901	     -9.77421005	     11.40828871	    -14.52019645	     21.46744777	     -7.50196397	      5.05867789	    -40.94585852	      9.69080844	      1.09948909	     -4.36965528	     -0.21743589	     -0.30960481
      5.63000000	     -1.77531058	     -2.03173002	   -103.88149446	      0.91721212	      1.06472693	      0.50934401	     -5.42128489	     12.19422167	      4.67662721	     -9.75936764	     11.68273969	    -14.41921124	     21.81442127	     -7.17806444	      4.96161160	    -38.91632853	      9.66021355	      1.46520572	     -4.29837403	     -0.37641375	     -0.04806102
      5.64000000	     -1.58083708	     -1.95469356	   -104.76436475	      0.91509893	      1.06427635	      0.51657197	     -5.83241927	     11.87657516	      5.52851892	     -9.77892208	     11.95581240	    -14.28759981	     22.10807954	     -6.83293186	      4.86427044	    -36.85577240	      9.55434021	      1.98719520	     -4.25072956	     -0.53226193	      0.14669300
      5.65000000	     -1.38020842	     -1.87073488	   -105.61136058	      0.91304443	      1.06374269	      0.52380746	     -6.20041850	     11.54914470	      6.31761797	     -9.83639581	     12.25266653	    -14.14676692	     22.37818733	     -6.46535778	      4.77754319	    -34.78306966	      9.37132982	      2.62246308	     -4.19372394	     -0.68345237	      0.31439087
      5.66000000	     -1.17374344	     -1.79002960	   -106.41778824	      0.91103099	      1.06314267	      0.53106246	     -6.53869188	     11.21237795	      7.04584645	     -9.92838099	     12.56658640	    -14.00817090	     22.61435252	     -6.07559684	      4.69763682	    -32.70520823	      9.13243705	      3.36913213	     -4.14019717	     -0.83576850	      0.43806776
      5.67000000	     -0.95901356	     -1.71968572	   -107.18827897	      0.90904262	      1.06248654	      0.53836163	     -6.85533596	     10.86262268	      7.71246869	    -10.05775629	     12.90256101	    -13.88270717	     22.80807677	     -5.65837839	      4.62956563	    -30.63200644	      8.86035136	      4.21888409	     -4.09343272	     -0.99532664	      0.52545944
      5.68000000	     -0.73355622	     -1.66094352	   -107.92298426	      0.90706671	      1.06177731	      0.54572246	     -7.15506821	     10.49722421	      8.31571895	    -10.21809061	     13.26200996	    -13.77962016	     22.95664980	     -5.20854549	      4.59272181	    -28.57004349	      8.57873439	      5.15622308	     -4.05241488	     -1.16877705	      0.57775272
      5.69000000	     -0.49281158	     -1.61582661	   -108.62825878	      0.90509234	      1.06101692	      0.55315820	     -7.43958100	     10.11185171	      8.86520449	    -10.41208676	     13.64805033	    -13.70161205	     23.05217431	     -4.71930260	      4.61329076	    -26.51960646	      8.31598508	      6.16740869	     -4.01522942	     -1.36189812	      0.60305297
      5.70000000	     -0.23298850	     -1.58296408	   -109.30488801	      0.90311779	      1.06020790	      0.56068123	     -7.70994543	      9.70366859	      9.36313662	    -10.63293262	     14.04771753	    -13.64483117	     23.09008047	     -4.18556184	      4.73285861	    -24.47843794	      8.08397865	      7.25685679	     -3.97669739	     -1.57849118	      0.60516047
      5.71000000	      0.04599256	     -1.56539704	   -109.96124503	      0.90112332	      1.05934847	      0.56829763	     -7.97251594	      9.27257979	      9.83154318	    -10.87847267	     14.47008654	    -13.60644390	     23.05763041	     -3.61082867	      4.98822090	    -22.44200965	      7.91203045	      8.40155318	     -3.93810679	     -1.82111512	      0.59217566
      5.72000000	      0.34128255	     -1.56478093	   -110.59994520	      0.89910115	      1.05844826	      0.57601795	     -8.23511126	      8.82045046	     10.27251255	    -11.14018668	     14.90277365	    -13.58419305	     22.94363801	     -3.00325360	      5.42101922	    -20.40816267	      7.79921563	      9.59838694	     -3.89898930	     -2.08601693	      0.56722081
      5.73000000	      0.64175798	     -1.57861380	   -111.22502762	      0.89702748	      1.05751272	      0.58384647	     -8.50491259	      8.35883974	     10.69902639	    -11.40926130	     15.32771270	    -13.57529216	     22.74386936	     -2.38603207	      6.05391545	    -18.38456174	      7.73668234	     10.81515528	     -3.85766532	     -2.36107888	      0.53156977
      5.74000000	      0.93779761	     -1.60487030	   -111.84519447	      0.89487148	      1.05654405	      0.59179273	     -8.78327829	      7.89602845	     11.09737461	    -11.68917894	     15.74035080	    -13.57583590	     22.45813306	     -1.78513459	      6.87218187	    -16.39250812	      7.72182386	     11.95886502	     -3.81070898	     -2.63681531	      0.50616747
      5.75000000	      1.20117527	     -1.64052169	   -112.46208944	      0.89258381	      1.05555968	      0.59983400	     -9.10409588	      7.46139116	     11.55991771	    -11.93617937	     16.11868000	    -13.56884791	     22.10016844	     -1.24215999	      7.84375033	    -14.48853242	      7.73855767	     13.02592784	     -3.76885806	     -2.88661115	      0.44715944
      5.76000000	      1.44408118	     -1.66728223	   -113.08313969	      0.89014027	      1.05453390	      0.60800451	     -9.42109367	      7.04586948	     11.97485630	    -12.19356160	     16.46503769	    -13.54679766	     21.70499526	     -0.76102125	      8.88410784	    -12.71860046	      7.77306377	     13.81337218	     -3.69807384	     -3.12007933	      0.41836847
      5.77000000	      1.62332776	     -1.68798398	   -113.71487730	      0.88750865	      1.05351110	      0.61623604	     -9.77637634	      6.69081437	     12.45937571	    -12.42279930	     16.75673547	    -13.48259239	     21.29574977	     -0.38181675	      9.92303663	    -11.18166902	      7.79794533	     14.38150071	     -3.63247716	     -3.29665221	      0.38795154
      5.78000000	      1.78016468	     -1.66858204	   -114.35771477	      0.88467512	      1.05245561	      0.62455211	    -10.09234955	      6.37030791	     12.91948485	    -12.67369455	     16.96607071	    -13.38029789	     20.93507295	     -0.07235224	     10.87962012	     -9.92199428	      7.74764141	     14.63380207	     -3.50947346	     -3.44900485	      0.38907105
      5.79000000	      1.88742694	     -1.65443966	   -115.01259398	      0.88164334	      1.05147559	      0.63295875	    -10.44934928	      6.08610266	     13.39772357	    -12.90126472	     17.12350349	    -13.20587456	     20.57914385	      0.17150311	     11.69996043	     -8.97909799	      7.62210613	     14.63284661	     -3.39642408	     -3.56518918	      0.41881686
      5.80000000	      1.96915904	     -1.62440413	   -115.66878670	      0.87845305	      1.05056218	      0.64141975	    -10.79235033	      5.83048489	     13.88622060	    -13.14894999	     17.23989235	    -12.96148552	     20.27291095	      0.38007267	     12.39877100	     -8.38185692	      7.33022516	     14.31030302	     -3.26382357	     -3.66021756	      0.44843704
      5.81000000	      2.07765854	     -1.57027801	   -116.34142861	      0.87509386	      1.04973076	      0.64991681	    -11.06843864	      5.55953586	     14.37115056	    -13.45297215	     17.26483969	    -12.68508647	     20.03927231	      0.59495371	     12.96419623	     -8.10865237	      6.82020592	     13.78704488	     -3.07547013	     -3.78835950	      0.51233903
      5.82000000	      2.20784457	     -1.50975867	   -117.00967311	      0.87162733	      1.04905194	      0.65843808	    -11.29140799	      5.27760960	     14.85797599	    -13.81931966	     17.22613848	    -12.37772030	     19.85441113	      0.82649045	     13.45074743	     -8.12034397	      6.08155800	     13.12134712	     -2.85920659	     -3.94422131	      0.56352572
      5.83000000	      2.37203162	     -1.45862262	   -117.66793508	      0.86807268	      1.04858147	      0.66696787	    -11.45869386	      4.97086262	     15.32506881	    -14.26384090	     17.11375146	    -12.02976713	     19.71218969	      1.09090115	     13.87212036	     -8.38231769	      5.16129894	     12.35288196	     -2.62655936	     -4.14998361	      0.61573456
      5.84000000	      2.58016312	     -1.42201263	   -118.32057570	      0.86439974	      1.04837251	      0.67548534	    -11.54691815	      4.63642993	     15.75558398	    -14.82420830	     16.89926854	    -11.64978358	     19.59387944	      1.38442156	     14.22861518	     -8.81158215	      4.17825691	     11.59772399	     -2.37471216	     -4.42118233	      0.66073372
      5.85000000	      2.81621864	     -1.40573370	   -118.95420123	      0.86063083	      1.04847143	      0.68398208	    -11.56028410	      4.29195563	     16.12938897	    -15.50939971	     16.55339501	    -11.20180672	     19.49456099	      1.69221148	     14.49867598	     -9.37168800	      3.26552714	     10.87290682	     -2.11967547	     -4.74109671	      0.68634434
      5.86000000	      3.08604301	     -1.41990837	   -119.58349820	      0.85671577	      1.04889530	      0.69242132	    -11.48091380	      3.93277730	     16.43953324	    -16.36121457	     16.10704628	    -10.69110834	     19.39768091	      2.00622954	     14.62895046	    -10.00291589	      2.54624006	     10.30817308	     -1.86761258	     -5.12460673	      0.68766684
      5.87000000	      3.36408767	     -1.46136086	   -120.20459136	      0.85265867	      1.04964934	      0.70079525	    -11.31497496	      3.58438100	     16.67528141	    -17.37858434	     15.53576005	    -10.07083845	     19.28751200	      2.29996742	     14.62483883	    -10.66707556	      2.06646604	      9.90408736	     -1.63048771	     -5.54246083	      0.66880157
